# xmcd
#
# Track frame offsets: 
#        150
#        8854
#        15454
#        49751
#        63763
#        82557
#        98937
#        124663
#        127452
#        131501
#        143259
#        159720
#        174229
#        221092
#        235962
#        255687
#        276102
#        306644
#        322346
#
# Disc length: 4469 seconds
#
# Revision: 0
# Processed by: cddbd v1.5.2PL0 Copyright (c) Steve Scherf et al.
# Submitted via: ExactAudioCopy v0.95b3
#
DISCID=0c117313
DTITLE=Va  - Altamont - Disc 2  FLAC
DYEAR=1900
DGENRE=
TTITLE0=Sympathy For The Devil (false start) - The Rolling Stones
TTITLE1=Be, Cool, People - The Rolling Stones
TTITLE2=Sympathy For The Devil - The Rolling Stones
TTITLE3=Whos Fighting - The Rolling Stones
TTITLE4=The Sun Is Shining - The Rolling Stones
TTITLE5=Stray Cat Blues - The Rolling Stones
TTITLE6=Love In Vain - The Rolling Stones
TTITLE7='Sit Down'!! - The Rolling Stones
TTITLE8=Under My Thumb - The Rolling Stones
TTITLE9='Get Off The Stage'!! - The Rolling Stones
TTITLE10=Under My Thumb - The Rolling Stones
TTITLE11=Brown Sugar (incomplete) - The Rolling Stones
TTITLE12=Midnight Rambler - The Rolling Stones
TTITLE13=Live With Me - The Rolling Stones
TTITLE14=Gimme Shelter - The Rolling Stones
TTITLE15=Little Queenie - The Rolling Stones
TTITLE16=Satisfaction - The Rolling Stones
TTITLE17=Honky Tonk Women - The Rolling Stones
TTITLE18=Street Fighting Man - The Rolling Stones
EXTD=
EXTT0=
EXTT1=
EXTT2=
EXTT3=
EXTT4=
EXTT5=
EXTT6=
EXTT7=
EXTT8=
EXTT9=
EXTT10=
EXTT11=
EXTT12=
EXTT13=
EXTT14=
EXTT15=
EXTT16=
EXTT17=
EXTT18=
PLAYORDER=
